<svg width="25" height="25" viewBox="0 0 25 25" fill="none" xmlns="http://www.w3.org/2000/svg">
<path d="M16.4602 9.04766C16.4602 6.87344 14.6837 5.10469 12.5001 5.10469C10.3165 5.10469 8.53992 6.87344 8.53992 9.04766C8.53992 11.2219 10.3165 12.9906 12.5001 12.9906C14.6837 12.9906 16.4602 11.2219 16.4602 9.04766Z" fill="#4664A0"/>
<path d="M12.4981 24.9984L14.1032 22.8988C15.7786 20.6809 21.2446 13.1238 21.2446 8.99219C21.245 3.61445 17.7309 0.00156403 12.5 0.00156403C7.26919 0.00156403 3.75513 3.61445 3.75513 8.99258C3.75513 13.4418 10.1739 21.948 10.904 22.9008L12.4981 24.9984ZM6.97739 9.04766C6.97739 6.01211 9.45474 3.54219 12.5 3.54219C15.5454 3.54219 18.0227 6.01211 18.0227 9.04766C18.0227 12.0832 15.5454 14.5531 12.5 14.5531C9.45474 14.5531 6.97739 12.0836 6.97739 9.04766Z" fill="#4664A0"/>
</svg>
